<?xml version="1.0" encoding="UTF-8" standalone="no"?>
<!DOCTYPE svg PUBLIC "-//W3C//DTD SVG 1.1//EN"
 "http://www.w3.org/Graphics/SVG/1.1/DTD/svg11.dtd">
<!-- Generated by graphviz version 2.43.0 (0)
 -->
<!-- Title: data_life_cycle Pages: 1 -->
<svg width="581pt" height="222pt"
 viewBox="0.00 0.00 581.45 221.74" xmlns="http://www.w3.org/2000/svg" xmlns:xlink="http://www.w3.org/1999/xlink">
<g id="graph0" class="graph" transform="scale(1 1) rotate(0) translate(4 217.74)">
<title>data_life_cycle</title>
<polygon fill="white" stroke="transparent" points="-4,4 -4,-217.74 577.45,-217.74 577.45,4 -4,4"/>
<!-- creation -->
<g id="node1" class="node">
<title>creation</title>
<text text-anchor="middle" x="54.45" y="-192.04" font-family="Times,serif" font-size="14.00">creation</text>
</g>
<!-- 1 -->
<g id="node2" class="node">
<title>1</title>
<ellipse fill="none" stroke="black" cx="54.45" cy="-113.87" rx="54.39" ry="26.74"/>
<text text-anchor="middle" x="54.45" y="-117.67" font-family="Times,serif" font-size="14.00">refcount</text>
<text text-anchor="middle" x="54.45" y="-102.67" font-family="Times,serif" font-size="14.00">= 1</text>
</g>
<!-- creation&#45;&gt;1 -->
<g id="edge1" class="edge">
<title>creation&#45;&gt;1</title>
<path fill="none" stroke="black" d="M54.45,-177.41C54.45,-169.68 54.45,-160.26 54.45,-151.1"/>
<polygon fill="black" stroke="black" points="57.95,-150.97 54.45,-140.97 50.95,-150.97 57.95,-150.97"/>
</g>
<!-- destruction -->
<g id="node3" class="node">
<title>destruction</title>
<text text-anchor="middle" x="54.45" y="-14.3" font-family="Times,serif" font-size="14.00">destruction</text>
</g>
<!-- 1&#45;&gt;destruction -->
<g id="edge2" class="edge">
<title>1&#45;&gt;destruction</title>
<path fill="none" stroke="black" d="M54.45,-86.97C54.45,-74.34 54.45,-59.14 54.45,-46.32"/>
<polygon fill="black" stroke="black" points="57.95,-46.22 54.45,-36.22 50.95,-46.22 57.95,-46.22"/>
<text text-anchor="middle" x="73.95" y="-57.8" font-family="Times,serif" font-size="14.00">unref</text>
</g>
<!-- 2 -->
<g id="node4" class="node">
<title>2</title>
<ellipse fill="none" stroke="black" cx="227.45" cy="-113.87" rx="54.39" ry="26.74"/>
<text text-anchor="middle" x="227.45" y="-117.67" font-family="Times,serif" font-size="14.00">refcount</text>
<text text-anchor="middle" x="227.45" y="-102.67" font-family="Times,serif" font-size="14.00">= 2</text>
</g>
<!-- 1&#45;&gt;2 -->
<g id="edge3" class="edge">
<title>1&#45;&gt;2</title>
<path fill="none" stroke="black" d="M109.19,-113.87C126.15,-113.87 145.01,-113.87 162.59,-113.87"/>
<polygon fill="black" stroke="black" points="162.77,-117.37 172.77,-113.87 162.77,-110.37 162.77,-117.37"/>
<text text-anchor="middle" x="140.95" y="-120.67" font-family="Times,serif" font-size="14.00">addref</text>
</g>
<!-- 2&#45;&gt;1 -->
<g id="edge4" class="edge">
<title>2&#45;&gt;1</title>
<path fill="none" stroke="black" d="M180.91,-99.69C174.1,-98.11 167.13,-96.75 160.45,-95.87 143.26,-93.6 138.63,-93.6 121.45,-95.87 118,-96.33 114.48,-96.91 110.94,-97.58"/>
<polygon fill="black" stroke="black" points="110.04,-94.19 100.99,-99.69 111.5,-101.04 110.04,-94.19"/>
<text text-anchor="middle" x="140.95" y="-99.67" font-family="Times,serif" font-size="14.00">unref</text>
</g>
<!-- 3 -->
<g id="node5" class="node">
<title>3</title>
<ellipse fill="none" stroke="black" cx="400.45" cy="-113.87" rx="54.39" ry="26.74"/>
<text text-anchor="middle" x="400.45" y="-117.67" font-family="Times,serif" font-size="14.00">refcount</text>
<text text-anchor="middle" x="400.45" y="-102.67" font-family="Times,serif" font-size="14.00">= 3</text>
</g>
<!-- 2&#45;&gt;3 -->
<g id="edge5" class="edge">
<title>2&#45;&gt;3</title>
<path fill="none" stroke="black" d="M282.19,-113.87C299.15,-113.87 318.01,-113.87 335.59,-113.87"/>
<polygon fill="black" stroke="black" points="335.77,-117.37 345.77,-113.87 335.77,-110.37 335.77,-117.37"/>
<text text-anchor="middle" x="313.95" y="-120.67" font-family="Times,serif" font-size="14.00">addref</text>
</g>
<!-- 3&#45;&gt;2 -->
<g id="edge6" class="edge">
<title>3&#45;&gt;2</title>
<path fill="none" stroke="black" d="M353.91,-99.69C347.1,-98.11 340.13,-96.75 333.45,-95.87 316.26,-93.6 311.63,-93.6 294.45,-95.87 291,-96.33 287.48,-96.91 283.94,-97.58"/>
<polygon fill="black" stroke="black" points="283.04,-94.19 273.99,-99.69 284.5,-101.04 283.04,-94.19"/>
<text text-anchor="middle" x="313.95" y="-99.67" font-family="Times,serif" font-size="14.00">unref</text>
</g>
<!-- inf -->
<g id="node6" class="node">
<title>inf</title>
<text text-anchor="middle" x="546.45" y="-110.17" font-family="Times,serif" font-size="14.00">...</text>
</g>
<!-- 3&#45;&gt;inf -->
<g id="edge7" class="edge">
<title>3&#45;&gt;inf</title>
<path fill="none" stroke="black" d="M455.23,-113.87C473.15,-113.87 492.64,-113.87 508.98,-113.87"/>
<polygon fill="black" stroke="black" points="509.22,-117.37 519.22,-113.87 509.22,-110.37 509.22,-117.37"/>
<text text-anchor="middle" x="487.17" y="-120.67" font-family="Times,serif" font-size="14.00">addref</text>
</g>
<!-- inf&#45;&gt;3 -->
<g id="edge8" class="edge">
<title>inf&#45;&gt;3</title>
<path fill="none" stroke="black" d="M519.15,-99.72C515.06,-98.13 510.82,-96.77 506.67,-95.87 490.17,-92.31 472.09,-93.5 455.61,-96.53"/>
<polygon fill="black" stroke="black" points="454.65,-93.15 445.58,-98.63 456.09,-100 454.65,-93.15"/>
<text text-anchor="middle" x="487.17" y="-99.67" font-family="Times,serif" font-size="14.00">unref</text>
</g>
</g>
</svg>
