<?xml version="1.0" encoding="UTF-8" standalone="no"?>
<!DOCTYPE svg PUBLIC "-//W3C//DTD SVG 1.1//EN"
 "http://www.w3.org/Graphics/SVG/1.1/DTD/svg11.dtd">
<!-- Generated by graphviz version 2.43.0 (0)
 -->
<!-- Title: types_converts Pages: 1 -->
<svg width="1051pt" height="603pt"
 viewBox="0.00 0.00 1050.64 603.00" xmlns="http://www.w3.org/2000/svg" xmlns:xlink="http://www.w3.org/1999/xlink">
<g id="graph0" class="graph" transform="scale(1 1) rotate(0) translate(4 599)">
<title>types_converts</title>
<polygon fill="white" stroke="transparent" points="-4,4 -4,-599 1046.64,-599 1046.64,4 -4,4"/>
<!-- LEGEND -->
<g id="node1" class="node">
<title>LEGEND</title>
<polygon fill="none" stroke="black" points="466.64,-595 176.64,-595 176.64,-435 472.64,-435 472.64,-589 466.64,-595"/>
<polyline fill="none" stroke="black" points="466.64,-595 466.64,-589 "/>
<polyline fill="none" stroke="black" points="472.64,-589 466.64,-589 "/>
<text text-anchor="middle" x="324.64" y="-579.8" font-family="Times,serif" font-size="14.00">Convertion between predefined types</text>
<text text-anchor="middle" x="324.64" y="-548.8" font-family="Times,serif" font-size="14.00">The prefix AFB_PREDEFINED_TYPE_</text>
<text text-anchor="middle" x="324.64" y="-533.8" font-family="Times,serif" font-size="14.00">is removed for presentation</text>
<text text-anchor="middle" x="324.64" y="-502.8" font-family="Times,serif" font-size="14.00">to: convert to</text>
<text text-anchor="middle" x="324.64" y="-487.8" font-family="Times,serif" font-size="14.00">to/c: convert to if valid</text>
<text text-anchor="middle" x="324.64" y="-472.8" font-family="Times,serif" font-size="14.00">to+u: convert to and update to</text>
<text text-anchor="middle" x="324.64" y="-457.8" font-family="Times,serif" font-size="14.00">from: convert from</text>
<text text-anchor="middle" x="324.64" y="-442.8" font-family="Times,serif" font-size="14.00">from+u: convert from and update from</text>
</g>
<!-- OPAQUE -->
<g id="node2" class="node">
<title>OPAQUE</title>
<ellipse fill="none" stroke="black" cx="161.64" cy="-279" rx="51.99" ry="18"/>
<text text-anchor="middle" x="161.64" y="-275.3" font-family="Times,serif" font-size="14.00">OPAQUE</text>
</g>
<!-- STRINGZ -->
<g id="node3" class="node">
<title>STRINGZ</title>
<ellipse fill="none" stroke="black" cx="150.64" cy="-192" rx="54.69" ry="18"/>
<text text-anchor="middle" x="150.64" y="-188.3" font-family="Times,serif" font-size="14.00">STRINGZ</text>
</g>
<!-- OPAQUE&#45;&gt;STRINGZ -->
<g id="edge1" class="edge">
<title>OPAQUE&#45;&gt;STRINGZ</title>
<path fill="none" stroke="black" d="M159.41,-260.8C157.91,-249.16 155.89,-233.55 154.16,-220.24"/>
<polygon fill="black" stroke="black" points="157.62,-219.64 152.86,-210.18 150.67,-220.54 157.62,-219.64"/>
<text text-anchor="middle" x="164.14" y="-231.8" font-family="Times,serif" font-size="14.00">to</text>
</g>
<!-- JSON -->
<g id="node4" class="node">
<title>JSON</title>
<ellipse fill="none" stroke="black" cx="394.64" cy="-105" rx="36" ry="18"/>
<text text-anchor="middle" x="394.64" y="-101.3" font-family="Times,serif" font-size="14.00">JSON</text>
</g>
<!-- OPAQUE&#45;&gt;JSON -->
<g id="edge2" class="edge">
<title>OPAQUE&#45;&gt;JSON</title>
<path fill="none" stroke="black" d="M174.43,-261.23C191.48,-239.54 223.27,-201.3 255.64,-174 276.56,-156.35 283.29,-153.49 307.64,-141 323.09,-133.08 340.76,-125.68 356.13,-119.75"/>
<polygon fill="black" stroke="black" points="357.73,-122.88 365.84,-116.07 355.25,-116.34 357.73,-122.88"/>
<text text-anchor="middle" x="263.14" y="-188.3" font-family="Times,serif" font-size="14.00">to</text>
</g>
<!-- JSON_C -->
<g id="node5" class="node">
<title>JSON_C</title>
<ellipse fill="none" stroke="black" cx="547.64" cy="-18" rx="46.59" ry="18"/>
<text text-anchor="middle" x="547.64" y="-14.3" font-family="Times,serif" font-size="14.00">JSON_C</text>
</g>
<!-- OPAQUE&#45;&gt;JSON_C -->
<g id="edge3" class="edge">
<title>OPAQUE&#45;&gt;JSON_C</title>
<path fill="none" stroke="black" d="M139.1,-262.5C92.21,-228.42 -7.41,-145.4 43.64,-87 72.82,-53.62 366.46,-30.76 491.61,-22.46"/>
<polygon fill="black" stroke="black" points="492.01,-25.94 501.76,-21.79 491.55,-18.96 492.01,-25.94"/>
<text text-anchor="middle" x="45.14" y="-144.8" font-family="Times,serif" font-size="14.00">to</text>
</g>
<!-- STRINGZ&#45;&gt;OPAQUE -->
<g id="edge5" class="edge">
<title>STRINGZ&#45;&gt;OPAQUE</title>
<path fill="none" stroke="black" d="M133.34,-209.33C125.32,-218.94 118.57,-231.44 123.64,-243 125.61,-247.49 128.47,-251.65 131.74,-255.43"/>
<polygon fill="black" stroke="black" points="129.37,-258.01 138.92,-262.62 134.33,-253.07 129.37,-258.01"/>
<text text-anchor="middle" x="137.14" y="-231.8" font-family="Times,serif" font-size="14.00">to/c</text>
</g>
<!-- STRINGZ&#45;&gt;JSON -->
<g id="edge6" class="edge">
<title>STRINGZ&#45;&gt;JSON</title>
<path fill="none" stroke="black" d="M183.88,-177.68C198.21,-171.58 215.01,-163.95 229.64,-156 240.36,-150.18 241.45,-145.86 252.64,-141 284.17,-127.31 322.06,-118.31 350.77,-112.87"/>
<polygon fill="black" stroke="black" points="351.69,-116.26 360.9,-111.02 350.44,-109.37 351.69,-116.26"/>
<text text-anchor="middle" x="266.14" y="-144.8" font-family="Times,serif" font-size="14.00">to/c</text>
</g>
<!-- STRINGZ&#45;&gt;JSON_C -->
<g id="edge7" class="edge">
<title>STRINGZ&#45;&gt;JSON_C</title>
<path fill="none" stroke="black" d="M151.49,-173.74C152.9,-163.07 156.34,-149.78 164.64,-141 188.28,-115.99 402.91,-57.08 500.15,-31.37"/>
<polygon fill="black" stroke="black" points="501.24,-34.7 510.02,-28.77 499.45,-27.93 501.24,-34.7"/>
<text text-anchor="middle" x="314.14" y="-101.3" font-family="Times,serif" font-size="14.00">to/c</text>
</g>
<!-- BYTEARRAY -->
<g id="node6" class="node">
<title>BYTEARRAY</title>
<ellipse fill="none" stroke="black" cx="120.64" cy="-105" rx="67.69" ry="18"/>
<text text-anchor="middle" x="120.64" y="-101.3" font-family="Times,serif" font-size="14.00">BYTEARRAY</text>
</g>
<!-- STRINGZ&#45;&gt;BYTEARRAY -->
<g id="edge4" class="edge">
<title>STRINGZ&#45;&gt;BYTEARRAY</title>
<path fill="none" stroke="black" d="M133.3,-174.69C128.63,-169.24 124.17,-162.8 121.64,-156 119.01,-148.92 118.05,-140.88 117.93,-133.34"/>
<polygon fill="black" stroke="black" points="121.43,-133.29 118.23,-123.19 114.44,-133.08 121.43,-133.29"/>
<text text-anchor="middle" x="129.14" y="-144.8" font-family="Times,serif" font-size="14.00">to</text>
</g>
<!-- JSON&#45;&gt;OPAQUE -->
<g id="edge9" class="edge">
<title>JSON&#45;&gt;OPAQUE</title>
<path fill="none" stroke="black" d="M369.78,-118C358.25,-124.12 344.69,-132.14 333.64,-141 301.24,-166.98 302.55,-183.43 270.64,-210 248.04,-228.81 219.81,-246.28 197.74,-258.81"/>
<polygon fill="black" stroke="black" points="196.02,-255.76 189,-263.69 199.44,-261.87 196.02,-255.76"/>
<text text-anchor="middle" x="315.14" y="-188.3" font-family="Times,serif" font-size="14.00">to/c</text>
</g>
<!-- JSON&#45;&gt;STRINGZ -->
<g id="edge8" class="edge">
<title>JSON&#45;&gt;STRINGZ</title>
<path fill="none" stroke="black" d="M360.01,-110.05C303.25,-116.92 195.24,-131.09 180.64,-141 172.06,-146.82 165.54,-155.99 160.81,-164.89"/>
<polygon fill="black" stroke="black" points="157.65,-163.39 156.52,-173.92 163.97,-166.4 157.65,-163.39"/>
<text text-anchor="middle" x="203.14" y="-144.8" font-family="Times,serif" font-size="14.00">family</text>
</g>
<!-- JSON&#45;&gt;JSON_C -->
<g id="edge10" class="edge">
<title>JSON&#45;&gt;JSON_C</title>
<path fill="none" stroke="black" d="M411.68,-89.07C424.51,-78.34 442.88,-64.06 460.64,-54 474.11,-46.37 489.57,-39.58 503.69,-34.06"/>
<polygon fill="black" stroke="black" points="505.1,-37.27 513.2,-30.45 502.61,-30.72 505.1,-37.27"/>
<text text-anchor="middle" x="474.14" y="-57.8" font-family="Times,serif" font-size="14.00">to/c</text>
</g>
<!-- JSON_C&#45;&gt;OPAQUE -->
<g id="edge11" class="edge">
<title>JSON_C&#45;&gt;OPAQUE</title>
<path fill="none" stroke="black" d="M500.81,-19.98C399.21,-22.52 161.53,-30.83 84.64,-54 55.87,-62.67 45.89,-64.8 25.64,-87 24.41,-88.35 -7.48,-129.9 1.64,-156 19.98,-208.47 77.32,-242.84 118.11,-261.35"/>
<polygon fill="black" stroke="black" points="116.75,-264.57 127.31,-265.38 119.56,-258.16 116.75,-264.57"/>
<text text-anchor="middle" x="15.14" y="-144.8" font-family="Times,serif" font-size="14.00">to/c</text>
</g>
<!-- JSON_C&#45;&gt;JSON -->
<g id="edge12" class="edge">
<title>JSON_C&#45;&gt;JSON</title>
<path fill="none" stroke="black" d="M531.45,-35.07C519.98,-45.79 503.81,-59.58 487.64,-69 471.19,-78.58 451.64,-86.4 434.72,-92.21"/>
<polygon fill="black" stroke="black" points="433.5,-88.92 425.11,-95.39 435.7,-95.57 433.5,-88.92"/>
<text text-anchor="middle" x="516.14" y="-57.8" font-family="Times,serif" font-size="14.00">to</text>
</g>
<!-- BOOL -->
<g id="node7" class="node">
<title>BOOL</title>
<ellipse fill="none" stroke="black" cx="528.64" cy="-515" rx="38.19" ry="18"/>
<text text-anchor="middle" x="528.64" y="-511.3" font-family="Times,serif" font-size="14.00">BOOL</text>
</g>
<!-- BOOL&#45;&gt;JSON -->
<g id="edge13" class="edge">
<title>BOOL&#45;&gt;JSON</title>
<path fill="none" stroke="black" d="M518.36,-487.47C510.56,-470.43 498.32,-448.95 481.64,-435 464.16,-420.38 454.72,-425.64 433.64,-417 400.32,-403.34 388.01,-406.18 359.64,-384 320.97,-353.78 307.62,-343.4 291.64,-297 286.43,-281.87 286.33,-276.09 291.64,-261 301.3,-233.57 316.04,-233.88 332.64,-210 353.27,-180.31 374.17,-143.57 385.66,-122.65"/>
<polygon fill="black" stroke="black" points="515.26,-489.12 522.44,-496.9 521.68,-486.34 515.26,-489.12"/>
<text text-anchor="middle" x="319.14" y="-275.3" font-family="Times,serif" font-size="14.00">from+u</text>
</g>
<!-- BOOL&#45;&gt;JSON_C -->
<g id="edge14" class="edge">
<title>BOOL&#45;&gt;JSON_C</title>
<path fill="none" stroke="black" d="M575.93,-509.05C693.13,-495.46 987.64,-452.79 987.64,-367 987.64,-367 987.64,-367 987.64,-104 987.64,-24.64 708.24,-17.79 594.73,-18.27"/>
<polygon fill="black" stroke="black" points="575.35,-505.59 565.81,-510.2 576.14,-512.54 575.35,-505.59"/>
<text text-anchor="middle" x="1015.14" y="-231.8" font-family="Times,serif" font-size="14.00">from+u</text>
</g>
<!-- I32 -->
<g id="node8" class="node">
<title>I32</title>
<ellipse fill="none" stroke="black" cx="720.64" cy="-366" rx="27" ry="18"/>
<text text-anchor="middle" x="720.64" y="-362.3" font-family="Times,serif" font-size="14.00">I32</text>
</g>
<!-- BOOL&#45;&gt;I32 -->
<g id="edge15" class="edge">
<title>BOOL&#45;&gt;I32</title>
<path fill="none" stroke="black" d="M547.75,-499.37C582.58,-472.7 656.39,-416.19 695.34,-386.37"/>
<polygon fill="black" stroke="black" points="697.74,-388.94 703.55,-380.08 693.48,-383.38 697.74,-388.94"/>
<text text-anchor="middle" x="691.64" y="-405.8" font-family="Times,serif" font-size="14.00">to+u</text>
</g>
<!-- U32 -->
<g id="node9" class="node">
<title>U32</title>
<ellipse fill="none" stroke="black" cx="528.64" cy="-366" rx="30.59" ry="18"/>
<text text-anchor="middle" x="528.64" y="-362.3" font-family="Times,serif" font-size="14.00">U32</text>
</g>
<!-- BOOL&#45;&gt;U32 -->
<g id="edge16" class="edge">
<title>BOOL&#45;&gt;U32</title>
<path fill="none" stroke="black" d="M528.64,-496.85C528.64,-471.62 528.64,-424.26 528.64,-394.24"/>
<polygon fill="black" stroke="black" points="532.14,-394.04 528.64,-384.04 525.14,-394.04 532.14,-394.04"/>
<text text-anchor="middle" x="546.64" y="-405.8" font-family="Times,serif" font-size="14.00">to+u</text>
</g>
<!-- I64 -->
<g id="node10" class="node">
<title>I64</title>
<ellipse fill="none" stroke="black" cx="646.64" cy="-279" rx="27" ry="18"/>
<text text-anchor="middle" x="646.64" y="-275.3" font-family="Times,serif" font-size="14.00">I64</text>
</g>
<!-- BOOL&#45;&gt;I64 -->
<g id="edge17" class="edge">
<title>BOOL&#45;&gt;I64</title>
<path fill="none" stroke="black" d="M537.33,-497.33C554.09,-465.12 591.91,-392.04 622.64,-330 626.59,-322.03 630.82,-313.29 634.6,-305.39"/>
<polygon fill="black" stroke="black" points="637.81,-306.79 638.96,-296.26 631.49,-303.78 637.81,-306.79"/>
<text text-anchor="middle" x="630.64" y="-362.3" font-family="Times,serif" font-size="14.00">to+u</text>
</g>
<!-- U64 -->
<g id="node11" class="node">
<title>U64</title>
<ellipse fill="none" stroke="black" cx="457.64" cy="-279" rx="30.59" ry="18"/>
<text text-anchor="middle" x="457.64" y="-275.3" font-family="Times,serif" font-size="14.00">U64</text>
</g>
<!-- BOOL&#45;&gt;U64 -->
<g id="edge18" class="edge">
<title>BOOL&#45;&gt;U64</title>
<path fill="none" stroke="black" d="M518.83,-497.49C498.49,-463.18 453.49,-387.12 452.64,-384 445.73,-358.48 448.35,-328.16 451.86,-306.87"/>
<polygon fill="black" stroke="black" points="455.33,-307.38 453.68,-296.91 448.44,-306.12 455.33,-307.38"/>
<text text-anchor="middle" x="470.64" y="-362.3" font-family="Times,serif" font-size="14.00">to+u</text>
</g>
<!-- DOUBLE -->
<g id="node12" class="node">
<title>DOUBLE</title>
<ellipse fill="none" stroke="black" cx="557.64" cy="-192" rx="52.79" ry="18"/>
<text text-anchor="middle" x="557.64" y="-188.3" font-family="Times,serif" font-size="14.00">DOUBLE</text>
</g>
<!-- BOOL&#45;&gt;DOUBLE -->
<g id="edge19" class="edge">
<title>BOOL&#45;&gt;DOUBLE</title>
<path fill="none" stroke="black" d="M520.89,-497.09C512.65,-480.24 498.51,-454.17 481.64,-435 473.06,-425.26 468.75,-425.14 458.64,-417 411.44,-378.99 379.42,-384.85 353.64,-330 350.8,-323.97 353.15,-321.65 353.64,-315 356.54,-276.01 338.89,-255.54 366.64,-228 386.87,-207.92 465.7,-215.67 493.64,-210 498.58,-209 503.71,-207.84 508.82,-206.61"/>
<polygon fill="black" stroke="black" points="509.7,-209.99 518.55,-204.17 508,-203.2 509.7,-209.99"/>
<text text-anchor="middle" x="371.64" y="-318.8" font-family="Times,serif" font-size="14.00">to+u</text>
</g>
<!-- I32&#45;&gt;JSON -->
<g id="edge20" class="edge">
<title>I32&#45;&gt;JSON</title>
<path fill="none" stroke="black" d="M731.55,-339.28C736.28,-326.77 741.28,-311.36 743.64,-297 753.14,-239.25 741.15,-211.99 696.64,-174 656.43,-139.68 499.64,-117.95 429.22,-109.73"/>
<polygon fill="black" stroke="black" points="728.28,-338.03 727.87,-348.62 734.79,-340.6 728.28,-338.03"/>
<text text-anchor="middle" x="771.14" y="-231.8" font-family="Times,serif" font-size="14.00">from+u</text>
</g>
<!-- I32&#45;&gt;JSON_C -->
<g id="edge21" class="edge">
<title>I32&#45;&gt;JSON_C</title>
<path fill="none" stroke="black" d="M757.99,-363.84C811.77,-359.96 904.64,-344 904.64,-280 904.64,-280 904.64,-280 904.64,-104 904.64,-40.93 691.08,-24.57 594.31,-20.4"/>
<polygon fill="black" stroke="black" points="757.56,-360.36 747.79,-364.47 757.99,-367.35 757.56,-360.36"/>
<text text-anchor="middle" x="932.14" y="-188.3" font-family="Times,serif" font-size="14.00">from+u</text>
</g>
<!-- I32&#45;&gt;I64 -->
<g id="edge22" class="edge">
<title>I32&#45;&gt;I64</title>
<path fill="none" stroke="black" d="M700.27,-354.07C690.37,-347.99 678.87,-339.69 670.64,-330 664.79,-323.11 660.01,-314.55 656.29,-306.48"/>
<polygon fill="black" stroke="black" points="659.41,-304.86 652.29,-297.01 652.96,-307.58 659.41,-304.86"/>
<text text-anchor="middle" x="688.64" y="-318.8" font-family="Times,serif" font-size="14.00">to+u</text>
</g>
<!-- I32&#45;&gt;DOUBLE -->
<g id="edge23" class="edge">
<title>I32&#45;&gt;DOUBLE</title>
<path fill="none" stroke="black" d="M718.49,-347.78C714.84,-325.24 705.46,-285.72 682.64,-261 660.85,-237.39 628.95,-220.23 602.83,-209.04"/>
<polygon fill="black" stroke="black" points="604.07,-205.77 593.49,-205.19 601.4,-212.24 604.07,-205.77"/>
<text text-anchor="middle" x="721.64" y="-275.3" font-family="Times,serif" font-size="14.00">to+u</text>
</g>
<!-- U32&#45;&gt;JSON -->
<g id="edge24" class="edge">
<title>U32&#45;&gt;JSON</title>
<path fill="none" stroke="black" d="M497.46,-348.85C486.9,-343.14 475.12,-336.52 464.64,-330 419.52,-301.94 397.71,-293.95 382.64,-243 370.25,-201.1 381.7,-149.1 389.25,-122.85"/>
<polygon fill="black" stroke="black" points="495.9,-351.99 506.37,-353.61 499.2,-345.81 495.9,-351.99"/>
<text text-anchor="middle" x="410.14" y="-231.8" font-family="Times,serif" font-size="14.00">from+u</text>
</g>
<!-- U32&#45;&gt;JSON_C -->
<g id="edge25" class="edge">
<title>U32&#45;&gt;JSON_C</title>
<path fill="none" stroke="black" d="M546.65,-340.96C552.92,-332.69 560.03,-323.39 566.64,-315 585.79,-290.67 587.19,-281.21 610.64,-261 644.31,-231.99 674.65,-248.61 696.64,-210 737.75,-137.83 626.75,-63.33 573.87,-33.06"/>
<polygon fill="black" stroke="black" points="543.71,-339.04 540.48,-349.13 549.3,-343.26 543.71,-339.04"/>
<text text-anchor="middle" x="732.14" y="-188.3" font-family="Times,serif" font-size="14.00">from+u</text>
</g>
<!-- U32&#45;&gt;I64 -->
<g id="edge26" class="edge">
<title>U32&#45;&gt;I64</title>
<path fill="none" stroke="black" d="M544.24,-350.16C555.56,-339.75 571.49,-325.81 586.64,-315 596.26,-308.14 607.31,-301.4 617.28,-295.7"/>
<polygon fill="black" stroke="black" points="619.05,-298.72 626.06,-290.78 615.63,-292.61 619.05,-298.72"/>
<text text-anchor="middle" x="604.64" y="-318.8" font-family="Times,serif" font-size="14.00">to+u</text>
</g>
<!-- U32&#45;&gt;U64 -->
<g id="edge27" class="edge">
<title>U32&#45;&gt;U64</title>
<path fill="none" stroke="black" d="M506.29,-353.62C496.43,-347.68 485.36,-339.64 477.64,-330 472.16,-323.15 468.01,-314.6 464.95,-306.52"/>
<polygon fill="black" stroke="black" points="468.26,-305.4 461.74,-297.05 461.63,-307.64 468.26,-305.4"/>
<text text-anchor="middle" x="495.64" y="-318.8" font-family="Times,serif" font-size="14.00">to+u</text>
</g>
<!-- U32&#45;&gt;DOUBLE -->
<g id="edge28" class="edge">
<title>U32&#45;&gt;DOUBLE</title>
<path fill="none" stroke="black" d="M530.2,-347.98C532.23,-327.32 536.17,-291.45 541.64,-261 544.1,-247.29 547.58,-232.2 550.66,-219.72"/>
<polygon fill="black" stroke="black" points="554.07,-220.49 553.12,-209.94 547.28,-218.78 554.07,-220.49"/>
<text text-anchor="middle" x="559.64" y="-275.3" font-family="Times,serif" font-size="14.00">to+u</text>
</g>
<!-- I64&#45;&gt;JSON -->
<g id="edge29" class="edge">
<title>I64&#45;&gt;JSON</title>
<path fill="none" stroke="black" d="M646.01,-250.68C644.1,-227.74 638.01,-195.37 619.64,-174 572.03,-118.6 480.99,-107.43 430.54,-105.72"/>
<polygon fill="black" stroke="black" points="642.52,-251.02 646.63,-260.79 649.51,-250.59 642.52,-251.02"/>
<text text-anchor="middle" x="665.14" y="-188.3" font-family="Times,serif" font-size="14.00">from+u</text>
</g>
<!-- I64&#45;&gt;JSON_C -->
<g id="edge30" class="edge">
<title>I64&#45;&gt;JSON_C</title>
<path fill="none" stroke="black" d="M675.48,-262.11C676.54,-261.71 677.59,-261.34 678.64,-261 735.42,-242.72 760.73,-274.09 811.64,-243 839.23,-226.15 840.41,-205.81 834.64,-174 824.48,-117.95 834.01,-89.72 789.64,-54 760.38,-30.44 655.89,-22.73 594.19,-20.21"/>
<polygon fill="black" stroke="black" points="673.85,-259 666.13,-266.25 676.69,-265.4 673.85,-259"/>
<text text-anchor="middle" x="859.14" y="-144.8" font-family="Times,serif" font-size="14.00">from+u</text>
</g>
<!-- I64&#45;&gt;DOUBLE -->
<g id="edge31" class="edge">
<title>I64&#45;&gt;DOUBLE</title>
<path fill="none" stroke="black" d="M621.83,-271.64C606.01,-266.39 586.2,-257.41 573.64,-243 568.08,-236.62 564.45,-228.3 562.08,-220.27"/>
<polygon fill="black" stroke="black" points="565.46,-219.34 559.7,-210.44 558.65,-220.99 565.46,-219.34"/>
<text text-anchor="middle" x="591.64" y="-231.8" font-family="Times,serif" font-size="14.00">to+u</text>
</g>
<!-- U64&#45;&gt;JSON -->
<g id="edge32" class="edge">
<title>U64&#45;&gt;JSON</title>
<path fill="none" stroke="black" d="M449.34,-251.08C446.94,-243.58 444.26,-235.45 441.64,-228 428.29,-190.11 410.93,-146.29 401.49,-122.86"/>
<polygon fill="black" stroke="black" points="446.06,-252.31 452.4,-260.79 452.73,-250.2 446.06,-252.31"/>
<text text-anchor="middle" x="462.14" y="-188.3" font-family="Times,serif" font-size="14.00">from+u</text>
</g>
<!-- U64&#45;&gt;DOUBLE -->
<g id="edge33" class="edge">
<title>U64&#45;&gt;DOUBLE</title>
<path fill="none" stroke="black" d="M465.31,-261.56C470.89,-250.96 479.27,-237.43 489.64,-228 497,-221.3 505.88,-215.52 514.76,-210.7"/>
<polygon fill="black" stroke="black" points="516.62,-213.68 523.95,-206.03 513.45,-207.44 516.62,-213.68"/>
<text text-anchor="middle" x="507.64" y="-231.8" font-family="Times,serif" font-size="14.00">to+u</text>
</g>
<!-- DOUBLE&#45;&gt;JSON -->
<g id="edge34" class="edge">
<title>DOUBLE&#45;&gt;JSON</title>
<path fill="none" stroke="black" d="M518.02,-172.89C506.83,-167.6 494.69,-161.71 483.64,-156 460.65,-144.12 434.94,-129.53 417.08,-119.18"/>
<polygon fill="black" stroke="black" points="516.62,-176.1 527.16,-177.17 519.59,-169.76 516.62,-176.1"/>
<text text-anchor="middle" x="511.14" y="-144.8" font-family="Times,serif" font-size="14.00">from+u</text>
</g>
<!-- DOUBLE&#45;&gt;JSON_C -->
<g id="edge35" class="edge">
<title>DOUBLE&#45;&gt;JSON_C</title>
<path fill="none" stroke="black" d="M556.05,-163.64C553.96,-127.76 550.37,-65.88 548.63,-36.05"/>
<polygon fill="black" stroke="black" points="552.57,-164.1 556.64,-173.88 559.56,-163.69 552.57,-164.1"/>
<text text-anchor="middle" x="580.14" y="-101.3" font-family="Times,serif" font-size="14.00">from+u</text>
</g>
</g>
</svg>
